<?xml version="1.0" encoding="UTF-8"?>
<svg version="1.1" xmlns="http://www.w3.org/2000/svg" width="411" height="411">
<path d="M0 0 C127.71 0 255.42 0 387 0 C387 0.33 387 0.66 387 1 C334.53 1.33 282.06 1.66 228 2 C235.59 3.65 243.18 5.3 251 7 C255.4286316 8.26497646 259.6827805 9.52520361 264 11.0625 C265.06686035 11.43753662 266.1337207 11.81257324 267.23291016 12.19897461 C283.0708852 17.98237341 298.42296072 25.96565756 312 36 C313.04929687 36.76699219 314.09859375 37.53398438 315.1796875 38.32421875 C322.90224235 44.06397087 330.0515068 50.3489299 337 57 C337.55300781 57.52045898 338.10601562 58.04091797 338.67578125 58.57714844 C351.72874071 70.90085114 362.40304891 84.52546187 371.29296875 100.12109375 C372.84598718 103.01104121 372.84598718 103.01104121 375 105 C386.701687 125.73797289 393.36158548 148.8079274 398 172 C398.33 117.88 398.66 63.76 399 8 C399.33 8 399.66 8 400 8 C400 133.73 400 259.46 400 389 C399.67 389 399.34 389 399 389 C398.67 340.16 398.34 291.32 398 241 C396.02 249.25 394.04 257.5 392 266 C388.37397232 276.96240927 383.69683686 287.11416038 378.60668945 297.46142578 C378.14093506 298.41001465 377.67518066 299.35860352 377.1953125 300.3359375 C376.77266113 301.18720215 376.35000977 302.0384668 375.91455078 302.91552734 C374.86607496 304.9258669 374.86607496 304.9258669 375 307 C374.01757641 308.01727277 373.01432463 309.01453283 372 310 C371.08898548 311.27054985 370.21192844 312.56587832 369.36328125 313.87890625 C368.62718628 315.00619141 368.62718628 315.00619141 367.8762207 316.15625 C367.36019287 316.9503125 366.84416504 317.744375 366.3125 318.5625 C358.05647826 331.09110296 348.75877415 342.51019521 338 353 C337.40316406 353.63035156 336.80632812 354.26070313 336.19140625 354.91015625 C327.41846756 364.03723191 317.38437724 371.52581928 306.9375 378.625 C306.0091333 379.26393188 306.0091333 379.26393188 305.06201172 379.91577148 C301.72280103 382.13445087 299.02188461 383.71173177 295 384 C293.01043224 382.76268578 293.01043224 382.76268578 291.0579071 380.81307983 C289.93692879 379.71531219 289.93692879 379.71531219 288.79330444 378.59536743 C287.98841583 377.77676239 287.18352722 376.95815735 286.35424805 376.11474609 C285.06568153 374.83954102 285.06568153 374.83954102 283.75108337 373.53857422 C281.3969427 371.20211469 279.05710016 368.85294003 276.72327018 366.49629164 C274.27951162 364.0336346 271.82076231 361.58602349 269.36421204 359.13613892 C265.24051406 355.01878443 261.12929405 350.88927793 257.02514648 346.75244141 C252.27967029 341.969482 247.51488092 337.20645367 242.73926514 332.45360124 C238.14705185 327.88233643 233.56906397 323.29707463 228.99732399 318.70534134 C227.05098581 316.7510153 225.09975245 314.80177756 223.1444149 312.85645676 C220.41462856 310.13917871 217.70576949 307.40161887 214.9987793 304.66162109 C213.77626465 303.45193161 213.77626465 303.45193161 212.52905273 302.21780396 C211.79583298 301.46903992 211.06261322 300.72027588 210.30717468 299.94882202 C209.66472651 299.30318991 209.02227835 298.65755779 208.36036205 297.99236107 C206.66440812 295.50849834 206.72970352 293.94647468 207 291 C209.20528272 290.32331051 211.41438609 289.65906502 213.625 289 C214.85476562 288.62875 216.08453125 288.2575 217.3515625 287.875 C220.74633252 287.06083674 223.54143056 287 227 287 C227.66 286.34 228.32 285.68 229 285 C231.61478782 282.5863497 233.18943482 281.95895579 236.75 281.1875 C241.6674118 280.09167228 245.42465829 277.50819915 249 274 C249.32226562 273.29617188 249.64453125 272.59234375 249.9765625 271.8671875 C250.31429688 271.25101562 250.65203125 270.63484375 251 270 C252.32117944 269.6213527 253.65690965 269.2915428 255 269 C256.94077624 267.53215811 256.94077624 267.53215811 258.6875 265.6875 C259.28949219 265.09324219 259.89148438 264.49898438 260.51171875 263.88671875 C262.13678106 262.09775991 262.13678106 262.09775991 262.51953125 259.83203125 C262.67808594 259.22746094 262.83664062 258.62289063 263 258 C263.99 257.67 264.98 257.34 266 257 C266.33 256.01 266.66 255.02 267 254 C267.7115625 253.071875 267.7115625 253.071875 268.4375 252.125 C270.13160844 249.82101252 270.94608689 247.65241328 272 245 C272.78094385 243.51514417 273.57306269 242.03612366 274.375 240.5625 C278.62669545 232.14716197 281.60052656 222.4708494 282 213 C282.0515625 211.92621094 282.103125 210.85242188 282.15625 209.74609375 C282.56081752 193.5802498 279.45204343 178.52553755 271.3046875 164.48046875 C270.13485979 162.25639512 269.59575345 160.40914333 269 158 C267.15811388 155.94729537 267.15811388 155.94729537 265 155 C264.87625 154.360625 264.7525 153.72125 264.625 153.0625 C264.41875 152.381875 264.2125 151.70125 264 151 C263.34 150.67 262.68 150.34 262 150 C261.34 149.67 260.68 149.34 260 149 C259.65657551 147.66923011 259.32380126 146.33568021 259 145 C257.03347598 143.2369095 255.21261225 142.09719417 252.8125 141 C251 140 251 140 250 137 C249.34 136.835 248.68 136.67 248 136.5 C247.34 136.335 246.68 136.17 246 136 C245.67 135.01 245.34 134.02 245 133 C243.35 132.67 241.7 132.34 240 132 C240 131.34 240 130.68 240 130 C231.0650492 125.03581475 231.0650492 125.03581475 221.171875 123.140625 C218.88675932 122.99266787 216.84933447 122.53690832 214.625 122 C198.83403913 118.76334342 181.36071789 118.9434014 166.11328125 124.4140625 C163.67193438 125.09096089 161.52155818 125.09715285 159 125 C159 125.66 159 126.32 159 127 C156.01053539 128.63708776 153.61364607 129.93324352 150.19921875 130.3046875 C146.17480864 131.17934562 143.57262067 133.15798568 140.4375 135.6875 C139.88642578 136.10966797 139.33535156 136.53183594 138.76757812 136.96679688 C134.21275216 140.54906214 129.87258051 144.38225847 128 150 C126.66666667 150.66666667 125.33333333 151.33333333 124 152 C123.67 152.99 123.34 153.98 123 155 C122 156.33333333 121 157.66666667 120 159 C119.67 159.99 119.34 160.98 119 162 C118.34 162.66 117.68 163.32 117 164 C116.71125 164.86625 116.4225 165.7325 116.125 166.625 C115.25994084 169.22017747 114.40432045 171.19875557 113.125 173.5625 C107.70265387 184.31972047 106.40805815 194.70030973 106.45410156 206.61254883 C106.44534437 208.13169908 106.43485121 209.65084015 106.42277527 211.16996765 C106.39515685 215.25178715 106.39150517 219.33330212 106.39249516 223.41520143 C106.38934505 227.69668367 106.36368364 231.97803291 106.34051514 236.25944519 C106.30011113 244.34801752 106.27965131 252.43650955 106.26654124 260.52516717 C106.25061806 269.74180988 106.21218031 278.95831697 106.17194796 288.17488062 C106.08976275 307.11654407 106.03553742 326.05819443 106 345 C106.969375 345.268125 107.93875 345.53625 108.9375 345.8125 C109.948125 346.204375 110.95875 346.59625 112 347 C112.495 348.485 112.495 348.485 113 350 C117.64525021 353.28566478 122.41326913 354.3295923 128 355 C128.66 355.66 129.32 356.32 130 357 C131.97586562 358.09971311 131.97586562 358.09971311 134.25 358.4375 C137.26907224 359.0550375 140.09283336 359.9858721 143 361 C143.95475379 356.98226101 144.12703891 353.23735876 144.13130188 349.1125946 C144.13341759 348.43201376 144.13553331 347.75143292 144.13771313 347.05022842 C144.14369019 344.77655197 144.14271463 342.50293138 144.1418457 340.22924805 C144.14487872 338.59619045 144.14840057 336.9631337 144.15237427 335.33007812 C144.16025263 331.81610203 144.16540417 328.30213604 144.16866493 324.78815269 C144.17458437 319.22810651 144.19113352 313.66812402 144.21000671 308.10810852 C144.2163438 306.20311645 144.22266942 304.29812435 144.22898388 302.39313221 C144.23214969 301.4392142 144.2353155 300.48529619 144.23857725 299.50247157 C144.28062377 286.56131063 144.3136296 273.62017979 144.32592773 260.67895508 C144.33431268 251.94517752 144.35681801 243.21155819 144.3952834 234.4778598 C144.41502648 229.85875377 144.42745436 225.23988417 144.42244911 220.62073326 C144.41779669 216.27445458 144.43164036 211.92862399 144.45946121 207.58243561 C144.46636252 205.99098748 144.46651097 204.39949292 144.45926094 202.80804634 C144.39776656 187.7880083 144.39776656 187.7880083 149 181 C149.80915092 180.22106904 149.80915092 180.22106904 150.63464832 179.42640209 C152.23049279 178.08829094 152.23049279 178.08829094 152 176 C153.31200404 174.64567325 154.64631404 173.31266518 156 172 C156.33 171.34 156.66 170.68 157 170 C167.85274671 159.89787554 182.21769898 154.45177342 196.88671875 154.75 C211.16584759 155.89663017 222.10518388 161.86215331 232 172 C233.34564859 173.6567394 234.6812123 175.3218002 236 177 C236.5775 177.515625 237.155 178.03125 237.75 178.5625 C239 180 239 180 239 184 C239.66 184.33 240.32 184.66 241 185 C245.79454121 197.69143262 246.22220106 214.37568826 241 227 C239.84333396 229.54929195 239.00303334 230.99696666 237 233 C236.67 233.66 236.34 234.32 236 235 C234.37277514 236.72892641 232.72000903 238.36619667 231 240 C230.01966797 240.95519531 230.01966797 240.95519531 229.01953125 241.9296875 C224.3932076 246.26942473 219.9443698 249.36811149 214.1640625 251.9921875 C211.78629972 253.03299261 211.78629972 253.03299261 209 255 C205.80834669 256.90712582 203.50129531 257.23838715 199.796875 257.1953125 C198.8171875 257.18886719 197.8375 257.18242187 196.828125 257.17578125 C195.81234375 257.15902344 194.7965625 257.14226562 193.75 257.125 C192.71875 257.11597656 191.6875 257.10695313 190.625 257.09765625 C188.08309713 257.07412011 185.5416672 257.04124023 183 257 C183.24398781 258.40971825 183.24398781 258.40971825 183.49290466 259.84791565 C184.18187278 264.70657848 184.13193593 269.53452107 184.11352539 274.43334961 C184.11367142 275.4584967 184.11381744 276.4836438 184.1139679 277.53985596 C184.11327413 280.91070714 184.10550689 284.28150228 184.09765625 287.65234375 C184.09579017 289.99646474 184.09436716 292.34058612 184.09336853 294.68470764 C184.08955836 300.84137049 184.0797409 306.99800959 184.06866455 313.15466309 C184.05841815 319.44229816 184.053864 325.7299371 184.04882812 332.01757812 C184.03811727 344.34506249 184.02105889 356.67252927 184 369 C188.03454936 368.87975612 192.06895265 368.75543502 196.10327148 368.62768555 C197.46944964 368.58495747 198.83566031 368.54325394 200.2019043 368.50268555 C209.15985701 368.23582487 218.07128795 367.77653402 227 367 C227.27230438 367.59860336 227.54460876 368.19720673 227.82516479 368.81394958 C228.9740013 370.95162346 230.06928022 372.29601101 231.79736328 373.97680664 C232.35779327 374.5274025 232.91822327 375.07799835 233.49563599 375.64527893 C234.09777924 376.22768845 234.69992249 376.81009796 235.3203125 377.41015625 C236.58995642 378.65939071 237.85948421 379.9087432 239.12890625 381.15820312 C241.13248869 383.11816514 243.13846363 385.07560436 245.14697266 387.03051758 C247.0861057 388.92153965 249.01608152 390.82154105 250.9453125 392.72265625 C251.55150421 393.30709 252.15769592 393.89152374 252.78225708 394.4936676 C254.2458627 395.9396242 255.63086129 397.4642946 257 399 C257 399.99 257 400.98 257 402 C254.39966864 402.78600219 251.79568945 403.55331892 249.1875 404.3125 C248.48818359 404.52583984 247.78886719 404.73917969 247.06835938 404.95898438 C231.18338027 409.52676807 215.23222458 410.49046825 198.78515625 410.39111328 C195.634974 410.37505086 192.48608091 410.39104963 189.3359375 410.41015625 C172.407982 410.42840835 155.53653819 409.10383019 139.1875 404.4375 C138.29772461 404.18774414 137.40794922 403.93798828 136.49121094 403.68066406 C106.7583193 394.94177939 80.10953753 379.46410362 57 359 C55.62328125 357.80697266 55.62328125 357.80697266 54.21875 356.58984375 C49.03117828 352.03509328 44.41457468 347.29748961 40 342 C39.28714844 341.19820313 38.57429688 340.39640625 37.83984375 339.5703125 C14.14325195 312.36739574 0.36421065 280.74510586 -8 246 C-8.33 244.68 -8.66 243.36 -9 242 C-9.33 290.18 -9.66 338.36 -10 388 C-10.33 388 -10.66 388 -11 388 C-11 266.23 -11 144.46 -11 19 C-10.67 19 -10.34 19 -10 19 C-9.67 70.15 -9.34 121.3 -9 174 C-6.525 162.12 -6.525 162.12 -4 150 C0.39386924 135.14872196 6.10726675 121.77259336 13.10131836 108.00512695 C14.1363307 106.0620387 14.1363307 106.0620387 14 104 C14.9824522 102.98275486 15.98565631 101.98544755 17 101 C17.8994757 99.74120725 18.76484429 98.45760251 19.6015625 97.15625 C20.0869751 96.41004395 20.5723877 95.66383789 21.07250977 94.89501953 C21.84099243 93.70948486 21.84099243 93.70948486 22.625 92.5 C30.39734708 80.69689664 39.32298267 70.2703527 49 60 C49.72832031 59.21753906 50.45664062 58.43507812 51.20703125 57.62890625 C57.04897313 51.54851776 63.50784475 46.41052339 70.2265625 41.34667969 C71.85541027 40.10979583 73.46026124 38.84147641 75.0625 37.5703125 C100.5880895 18.10705051 131.62017466 7.22997089 163 2 C82.315 1.505 82.315 1.505 0 1 C0 0.67 0 0.34 0 0 Z M189 38 C189 38.33 189 38.66 189 39 C192.63 39 196.26 39 200 39 C200 38.67 200 38.34 200 38 C196.37 38 192.74 38 189 38 Z M176 39 C176 39.33 176 39.66 176 40 C178.64 40 181.28 40 184 40 C184 39.67 184 39.34 184 39 C181.36 39 178.72 39 176 39 Z M205 39 C205 39.33 205 39.66 205 40 C207.64 40 210.28 40 213 40 C213 39.67 213 39.34 213 39 C210.36 39 207.72 39 205 39 Z M168 40 C168 40.33 168 40.66 168 41 C169.98 41 171.96 41 174 41 C174 40.67 174 40.34 174 40 C172.02 40 170.04 40 168 40 Z M152.26171875 45.44921875 C149.17085799 46.20191541 146.1692843 46 143 46 C140.22970311 46.82666053 137.67142356 47.87519008 135 49 C135 49.66 135 50.32 135 51 C132.18531012 52.27940449 129.97836127 53.0017311 126.875 53.25 C121.29075199 54.33082219 116.8594126 57.12653179 112 60 C112 60.66 112 61.32 112 62 C110.35 62.33 108.7 62.66 107 63 C107 63.66 107 64.32 107 65 C106.29359375 65.08507812 105.5871875 65.17015625 104.859375 65.2578125 C101.35169327 66.16827634 99.15990775 67.72795996 96.25 69.875 C95.28578125 70.57367188 94.3215625 71.27234375 93.328125 71.9921875 C90.76290961 73.85811534 90.76290961 73.85811534 90 77 C89.401875 77.103125 88.80375 77.20625 88.1875 77.3125 C85.63870831 77.86219258 85.63870831 77.86219258 84 81 C82 84 82 84 80.13671875 84.4453125 C77.21454872 85.20390143 75.90570044 86.73074589 73.8125 88.875 C72.77029297 89.92300781 72.77029297 89.92300781 71.70703125 90.9921875 C69.79751107 92.98484739 69.79751107 92.98484739 69 96 C67.35511706 97.68816933 65.68662458 99.35353315 64 101 C62.97971135 102.31787285 61.98028616 103.65210653 61 105 C60.175 105.928125 59.35 106.85625 58.5 107.8125 C55.83057403 110.96290362 54.53979914 114.18716402 53 118 C52.01 118.99 52.01 118.99 51 120 C50.67 120.99 50.34 121.98 50 123 C49.01 123.99 49.01 123.99 48 125 C46.91135456 127.14344699 45.87599765 129.31424668 44.875 131.5 C44.33617188 132.6653125 43.79734375 133.830625 43.2421875 135.03125 C41.87133534 137.77114166 41.87133534 137.77114166 42 140 C41.01 140.495 41.01 140.495 40 141 C38.94020219 143.3254992 38.00620031 145.606651 37.125 148 C36.86106445 148.71333496 36.59712891 149.42666992 36.32519531 150.16162109 C29.86444991 168.18639252 27.59884754 186.69420413 27.6875 205.75 C27.68899048 206.54303528 27.69048096 207.33607056 27.6920166 208.15313721 C27.74888954 224.97861433 30.0091954 239.89606775 35 256 C35.67712012 258.33048504 36.33910458 260.6648362 37 263 C37.66 263 38.32 263 39 263 C39.12375 263.680625 39.2475 264.36125 39.375 265.0625 C41.16670307 273.48350441 43.76289563 281.81744756 50 288 C50 288.66 50 289.32 50 290 C50.61875 290.598125 51.2375 291.19625 51.875 291.8125 C54.15958901 294.1642828 54.86291317 295.96776846 56 299 C56.95298777 300.36733028 57.95374591 301.70264493 59 303 C59.495 303.680625 59.99 304.36125 60.5 305.0625 C61.89817747 306.86847923 63.31089132 308.46444665 65 310 C65.33 310 65.66 310 66 310 C66.00846388 309.41599395 66.01692776 308.8319879 66.02564812 308.23028469 C66.23315661 293.95456547 66.45055665 279.67902148 66.67867851 265.40361691 C66.78876778 258.49985391 66.89563014 251.59607035 66.99462891 244.69213867 C67.09031272 238.02003898 67.195342 231.34814425 67.3058815 224.67627144 C67.34640378 222.14045457 67.38387978 219.604587 67.41814804 217.0686779 C67.86647886 184.25766203 67.86647886 184.25766203 72.8125 168.8125 C73.07675781 167.96518311 73.34101562 167.11786621 73.61328125 166.24487305 C76.89453723 155.91700154 80.70204171 146.84635894 87 138 C87.8966366 136.5838416 88.79245036 135.16716193 89.6875 133.75 C108.88830357 105.12334741 137.65464242 88.11251845 170.90234375 80.578125 C204.64182658 74.28122278 238.95630667 82.37153048 267.40234375 101.078125 C274.16332347 106.08023331 280.07571481 112.0563544 286 118 C286.58523438 118.56203125 287.17046875 119.1240625 287.7734375 119.703125 C295.55577759 127.21972665 301.08084659 135.39951485 306 145 C306.86818359 146.59134766 306.86818359 146.59134766 307.75390625 148.21484375 C314.38648138 160.72075756 318.28523222 173.942892 320 188 C320.11085938 188.89847656 320.22171875 189.79695312 320.3359375 190.72265625 C322.15767472 207.83221532 320.9710201 225.49158907 316 242 C315.71253906 242.98226562 315.42507813 243.96453125 315.12890625 244.9765625 C308.33973648 266.78078408 293.21650382 289.83160814 275 304 C277.25464412 313.24404091 285.33520398 319.46975258 291.875 325.9375 C293.050625 327.10635742 293.050625 327.10635742 294.25 328.29882812 C296.16438581 330.20154085 298.08108034 332.10186171 300 334 C303.34984175 332.44914734 304.93886944 331.09169584 307 328 C307.66 327.01 308.32 326.02 309 325 C309.598125 324.896875 310.19625 324.79375 310.8125 324.6875 C314.35502933 323.57413364 315.84912013 320.90659442 318 318 C318.33 317.01 318.66 316.02 319 315 C319.639375 314.690625 320.27875 314.38125 320.9375 314.0625 C323.489354 312.74790855 323.87307058 311.57583868 325 309 C325.66 308.34 326.32 307.68 327 307 C330.23521552 303.36038254 332.30880208 300.59039437 334 296 C334.98731742 294.65724831 335.98594743 293.32267727 337 292 C337.33 291.01 337.66 290.02 338 289 C338.66 288.34 339.32 287.68 340 287 C341.08864544 284.85655301 342.12400235 282.68575332 343.125 280.5 C343.93324219 278.75203125 343.93324219 278.75203125 344.7578125 276.96875 C346.12866466 274.22885834 346.12866466 274.22885834 346 272 C346.66 271.67 347.32 271.34 348 271 C349.62973783 267.79745841 350.76470573 264.370528 352 261 C352.40605469 259.93523437 352.81210937 258.87046875 353.23046875 257.7734375 C365.29737313 224.28313672 364.69386711 186.49689916 353 153 C351.87353568 149.6831884 350.78787606 146.41412958 350 143 C349.34 143 348.68 143 348 143 C348.05800781 142.30132812 348.11601562 141.60265625 348.17578125 140.8828125 C347.95804392 137.31192025 346.82136473 135.04732131 345.1875 131.875 C344.66542969 130.84117187 344.14335937 129.80734375 343.60546875 128.7421875 C342.21885268 126.37380677 340.93994122 124.87585908 339 123 C339 122.34 339 121.68 339 121 C338.34 120.67 337.68 120.34 337 120 C336.87625 119.443125 336.7525 118.88625 336.625 118.3125 C335.23893084 113.18404412 331.31827106 109.04414286 328 105 C327.34 104.154375 326.68 103.30875 326 102.4375 C322.50634868 98.11447632 322.50634868 98.11447632 318 95 C317.79310547 94.09314453 317.79310547 94.09314453 317.58203125 93.16796875 C316.85221581 90.4495287 315.67907687 89.27848916 313.6875 87.3125 C313.09324219 86.71050781 312.49898438 86.10851562 311.88671875 85.48828125 C309.87406814 83.90066244 308.45825741 83.5544155 306 83 C304.9375 81.0625 304.9375 81.0625 304 79 C301.22739701 77.06201737 301.22739701 77.06201737 299 76 C298.34 75.34 297.68 74.68 297 74 C296.34 73.67 295.68 73.34 295 73 C294.34 72.34 293.68 71.68 293 71 C292.34 70.67 291.68 70.34 291 70 C290.34 69.01 289.68 68.02 289 67 C287.34178227 66.62690101 285.67422986 66.29299023 284 66 C282 64 282 64 281 62 C280.236875 61.87625 279.47375 61.7525 278.6875 61.625 C275.32532991 60.84309998 274.42296204 59.42296204 272 57 C267.0727995 53.90969442 262.7701081 52.74797698 257 52 C253.77450263 50.60025586 251.48367169 49.48367169 249 47 C247.17402352 46.68192392 247.17402352 46.68192392 245 46.625 C240.01776731 46.23128908 235.34639878 45.2149941 230.5 44.0625 C204.83373037 38.11703932 177.69992461 38.2076857 152.26171875 45.44921875 Z M215 40 C215 40.33 215 40.66 215 41 C216.98 41 218.96 41 221 41 C221 40.67 221 40.34 221 40 C219.02 40 217.04 40 215 40 Z M163 41 C167 42 167 42 167 42 Z M222 41 C226 42 226 42 226 42 Z M158 42 C162 43 162 43 162 43 Z M227 42 C231 43 231 43 231 43 Z M187 117 C187 117.33 187 117.66 187 118 C190.63 118 194.26 118 198 118 C198 117.67 198 117.34 198 117 C194.37 117 190.74 117 187 117 Z M177 118 C177 118.33 177 118.66 177 119 C179.64 119 182.28 119 185 119 C185 118.67 185 118.34 185 118 C182.36 118 179.72 118 177 118 Z M200 118 C200 118.33 200 118.66 200 119 C203.3 119 206.6 119 210 119 C210 118.67 210 118.34 210 118 C206.7 118 203.4 118 200 118 Z M173 119 C177 120 177 120 177 120 Z M210 119 C210 119.33 210 119.66 210 120 C211.98 120 213.96 120 216 120 C216 119.67 216 119.34 216 119 C214.02 119 212.04 119 210 119 Z M183 255 C183 255.33 183 255.66 183 256 C189.93 256 196.86 256 204 256 C204 255.67 204 255.34 204 255 C197.07 255 190.14 255 183 255 Z M214 290 C218 291 218 291 218 291 Z M274 305 C275 307 275 307 275 307 Z M215 369 C215 369.33 215 369.66 215 370 C216.98 370 218.96 370 221 370 C221 369.67 221 369.34 221 369 C219.02 369 217.04 369 215 369 Z M184 370 C184 370.33 184 370.66 184 371 C193.57 371 203.14 371 213 371 C213 370.67 213 370.34 213 370 C203.43 370 193.86 370 184 370 Z " fill="#F9F9F9" transform="translate(11,0)"/>
<path d="M0 0 C3.08325358 -0.0582253 6.16636505 -0.09367134 9.25 -0.125 C10.55904297 -0.15013672 10.55904297 -0.15013672 11.89453125 -0.17578125 C12.73886719 -0.18222656 13.58320313 -0.18867187 14.453125 -0.1953125 C15.22817383 -0.20578613 16.00322266 -0.21625977 16.80175781 -0.22705078 C19.28376638 0.0293095 20.81455595 0.83048024 23 2 C25.5861724 2.5997719 28.14309067 3.14205649 30.75 3.625 C31.44738281 3.7590625 32.14476562 3.893125 32.86328125 4.03125 C34.57451932 4.35943264 36.28713171 4.68043502 38 5 C34.36955967 6.25669088 31.73488932 5.68428823 28 5 C16.05767751 3.73356648 4.83888792 4.07946929 -7 6 C-9.33287006 6.33656031 -11.66607198 6.67085631 -14 7 C-11.01438083 4.01438083 -7.46628162 3.74615841 -3.43359375 2.78125 C-2.22896484 2.39453125 -2.22896484 2.39453125 -1 2 C-0.67 1.34 -0.34 0.68 0 0 Z M6 1 C6 1.33 6 1.66 6 2 C9.63 2 13.26 2 17 2 C17 1.67 17 1.34 17 1 C13.37 1 9.74 1 6 1 Z " fill="#9F9999" transform="translate(192,116)"/>
<path d="M0 0 C1.25425781 0.00902344 2.50851563 0.01804688 3.80078125 0.02734375 C4.75339844 0.03894531 5.70601562 0.05054688 6.6875 0.0625 C6.6875 0.3925 6.6875 0.7225 6.6875 1.0625 C-2.7175 1.5575 -2.7175 1.5575 -12.3125 2.0625 C-12.3125 1.7325 -12.3125 1.4025 -12.3125 1.0625 C-8.15623632 0.05323521 -4.26884906 -0.03989579 0 0 Z " fill="#EBEBEB" transform="translate(205.3125,152.9375)"/>
<path d="M0 0 C5.61 0 11.22 0 17 0 C17 0.33 17 0.66 17 1 C11.39 1 5.78 1 0 1 C0 0.67 0 0.34 0 0 Z " fill="#FFFFFF" transform="translate(196,76)"/>
<path d="M0 0 C0.66 0.33 1.32 0.66 2 1 C0.02 1.99 0.02 1.99 -2 3 C-1.34 2.01 -0.68 1.02 0 0 Z " fill="#949494" transform="translate(147,139)"/>
<path d="M0 0 C2.475 0.495 2.475 0.495 5 1 C4.01 1.33 3.02 1.66 2 2 C1.34 1.34 0.68 0.68 0 0 Z " fill="#A2A2A2" transform="translate(236,124)"/>
<path d="M0 0 C1.65 0 3.3 0 5 0 C5 0.33 5 0.66 5 1 C3.35 1 1.7 1 0 1 C0 0.67 0 0.34 0 0 Z " fill="#FFFFFF" transform="translate(212,154)"/>
<path d="M0 0 C1.65 0 3.3 0 5 0 C5 0.33 5 0.66 5 1 C3.35 1 1.7 1 0 1 C0 0.67 0 0.34 0 0 Z " fill="#FFFFFF" transform="translate(219,77)"/>
<path d="M0 0 C0.66 0.33 1.32 0.66 2 1 C1.01 1 0.02 1 -1 1 C-0.67 0.67 -0.34 0.34 0 0 Z " fill="#8A8A8A" transform="translate(251,278)"/>
<path d="M0 0 C0.66 0.33 1.32 0.66 2 1 C1.01 1 0.02 1 -1 1 C-0.67 0.67 -0.34 0.34 0 0 Z " fill="#8A8A8A" transform="translate(257,274)"/>
<path d="M0 0 C4 1 4 1 4 1 Z " fill="#FFFFFF" transform="translate(217,155)"/>
<path d="M0 0 C0.66 0.33 1.32 0.66 2 1 C1.01 1 0.02 1 -1 1 C-0.67 0.67 -0.34 0.34 0 0 Z " fill="#AAAAAA" transform="translate(152,135)"/>
<path d="M0 0 C0.99 0.33 1.98 0.66 3 1 C2.01 1 1.02 1 0 1 C0 0.67 0 0.34 0 0 Z " fill="#AAAA9F" transform="translate(254,133)"/>
<path d="M0 0 C0.66 0.33 1.32 0.66 2 1 C1.01 1 0.02 1 -1 1 C-0.67 0.67 -0.34 0.34 0 0 Z " fill="#9F9F9F" transform="translate(158,131)"/>
<path d="M0 0 C4 1 4 1 4 1 Z " fill="#FFFFFF" transform="translate(227,78)"/>
<path d="M0 0 C4 1 4 1 4 1 Z " fill="#FFFFFF" transform="translate(186,77)"/>
<path d="M0 0 C0.66 0.33 1.32 0.66 2 1 C1.01 1 0.02 1 -1 1 C-0.67 0.67 -0.34 0.34 0 0 Z " fill="#BFBFBF" transform="translate(104,73)"/>
<path d="M0 0 C3 1 3 1 3 1 Z " fill="#C6C6C6" transform="translate(235,286)"/>
<path d="M0 0 C3 1 3 1 3 1 Z " fill="#FFFFFF" transform="translate(220,254)"/>
<path d="M0 0 C3 1 3 1 3 1 Z " fill="#AAAAAA" transform="translate(223,253)"/>
<path d="M0 0 C3 1 3 1 3 1 Z " fill="#FFFFFF" transform="translate(221,156)"/>
<path d="M0 0 C3 1 3 1 3 1 Z " fill="#FFFFFF" transform="translate(187,156)"/>
<path d="M0 0 C3 1 3 1 3 1 Z " fill="#FFFFFF" transform="translate(190,155)"/>
<path d="M0 0 C3 1 3 1 3 1 Z " fill="#FFFFFF" transform="translate(237,80)"/>
<path d="M0 0 C3 1 3 1 3 1 Z " fill="#FFFFFF" transform="translate(172,80)"/>
<path d="M0 0 C3 1 3 1 3 1 Z " fill="#FFFFFF" transform="translate(233,79)"/>
<path d="M0 0 C3 1 3 1 3 1 Z " fill="#FFFFFF" transform="translate(176,79)"/>
<path d="M0 0 C3 1 3 1 3 1 Z " fill="#FFFFFF" transform="translate(148,49)"/>
<path d="M0 0 C3 1 3 1 3 1 Z " fill="#FFFFFF" transform="translate(257,48)"/>
<path d="M0 0 C3 1 3 1 3 1 Z " fill="#FFFFFF" transform="translate(151,48)"/>
<path d="M0 0 C3 1 3 1 3 1 Z " fill="#FFFFFF" transform="translate(154,47)"/>
<path d="M0 0 C2 1 2 1 2 1 Z " fill="#A6A6A6" transform="translate(141,357)"/>
<path d="M0 0 C2 1 2 1 2 1 Z " fill="#BBBBBB" transform="translate(132,353)"/>
<path d="M0 0 C2 1 2 1 2 1 Z " fill="#BFBFBF" transform="translate(130,352)"/>
<path d="M0 0 C2 1 2 1 2 1 Z " fill="#BFBFBF" transform="translate(128,351)"/>
<path d="M0 0 C2 1 2 1 2 1 Z " fill="#FFFFFF" transform="translate(126,350)"/>
<path d="M0 0 C2 1 2 1 2 1 Z " fill="#D4D4D4" transform="translate(124,349)"/>
<path d="M0 0 C2 1 2 1 2 1 Z " fill="#FFFFFF" transform="translate(311,332)"/>
<path d="M0 0 C2 1 2 1 2 1 Z " fill="#C2C2C2" transform="translate(238,285)"/>
<path d="M0 0 C2 1 2 1 2 1 Z " fill="#ADADAD" transform="translate(248,280)"/>
<path d="M0 0 C2 1 2 1 2 1 Z " fill="#BFBFBF" transform="translate(253,277)"/>
<path d="M0 0 C2 1 2 1 2 1 Z " fill="#DFDFDF" transform="translate(226,252)"/>
<path d="M0 0 C2 1 2 1 2 1 Z " fill="#DFDFDF" transform="translate(228,251)"/>
<path d="M0 0 C2 1 2 1 2 1 Z " fill="#FFFFFF" transform="translate(231,249)"/>
<path d="M0 0 C2 1 2 1 2 1 Z " fill="#7F7F7F" transform="translate(234,247)"/>
<path d="M0 0 C2 1 2 1 2 1 Z " fill="#FFFFFF" transform="translate(172,165)"/>
<path d="M0 0 C2 1 2 1 2 1 Z " fill="#FFFFFF" transform="translate(233,162)"/>
<path d="M0 0 C2 1 2 1 2 1 Z " fill="#BFBFBF" transform="translate(176,162)"/>
<path d="M0 0 C2 1 2 1 2 1 Z " fill="#FFFFFF" transform="translate(230,160)"/>
<path d="M0 0 C2 1 2 1 2 1 Z " fill="#FFFFFF" transform="translate(179,160)"/>
<path d="M0 0 C2 1 2 1 2 1 Z " fill="#BFBFBF" transform="translate(228,159)"/>
<path d="M0 0 C2 1 2 1 2 1 Z " fill="#FFFFFF" transform="translate(181,159)"/>
<path d="M0 0 C2 1 2 1 2 1 Z " fill="#FFFFFF" transform="translate(226,158)"/>
<path d="M0 0 C2 1 2 1 2 1 Z " fill="#D4D4D4" transform="translate(183,158)"/>
<path d="M0 0 C2 1 2 1 2 1 Z " fill="#BFBFBF" transform="translate(224,157)"/>
<path d="M0 0 C2 1 2 1 2 1 Z " fill="#FFFFFF" transform="translate(185,157)"/>
<path d="M0 0 C2 1 2 1 2 1 Z " fill="#BFBFBF" transform="translate(155,133)"/>
<path d="M0 0 C2 1 2 1 2 1 Z " fill="#D4D4D4" transform="translate(249,130)"/>
<path d="M0 0 C2 1 2 1 2 1 Z " fill="#ADADAD" transform="translate(160,130)"/>
<path d="M0 0 C2 1 2 1 2 1 Z " fill="#ADADAD" transform="translate(247,129)"/>
<path d="M0 0 C2 1 2 1 2 1 Z " fill="#ADADAD" transform="translate(245,128)"/>
<path d="M0 0 C2 1 2 1 2 1 Z " fill="#ADADAD" transform="translate(243,127)"/>
<path d="M0 0 C2 1 2 1 2 1 Z " fill="#C2C2C2" transform="translate(241,126)"/>
<path d="M0 0 C2 1 2 1 2 1 Z " fill="#C2C2C2" transform="translate(170,125)"/>
<path d="M0 0 C2 1 2 1 2 1 Z " fill="#FFFFFF" transform="translate(127,102)"/>
<path d="M0 0 C2 1 2 1 2 1 Z " fill="#FFFFFF" transform="translate(131,99)"/>
<path d="M0 0 C2 1 2 1 2 1 Z " fill="#FFFFFF" transform="translate(275,97)"/>
<path d="M0 0 C2 1 2 1 2 1 Z " fill="#FFFFFF" transform="translate(134,97)"/>
<path d="M0 0 C2 1 2 1 2 1 Z " fill="#FFFFFF" transform="translate(265,91)"/>
<path d="M0 0 C2 1 2 1 2 1 Z " fill="#FFFFFF" transform="translate(144,91)"/>
<path d="M0 0 C2 1 2 1 2 1 Z " fill="#FFFFFF" transform="translate(263,90)"/>
<path d="M0 0 C2 1 2 1 2 1 Z " fill="#FFFFFF" transform="translate(146,90)"/>
<path d="M0 0 C2 1 2 1 2 1 Z " fill="#FFFFFF" transform="translate(261,89)"/>
<path d="M0 0 C2 1 2 1 2 1 Z " fill="#FFFFFF" transform="translate(148,89)"/>
<path d="M0 0 C2 1 2 1 2 1 Z " fill="#FFFFFF" transform="translate(259,88)"/>
<path d="M0 0 C2 1 2 1 2 1 Z " fill="#FFFFFF" transform="translate(150,88)"/>
<path d="M0 0 C2 1 2 1 2 1 Z " fill="#FFFFFF" transform="translate(252,85)"/>
<path d="M0 0 C2 1 2 1 2 1 Z " fill="#FFFFFF" transform="translate(157,85)"/>
<path d="M0 0 C2 1 2 1 2 1 Z " fill="#FFFFFF" transform="translate(160,84)"/>
<path d="M0 0 C2 1 2 1 2 1 Z " fill="#FFFFFF" transform="translate(247,83)"/>
<path d="M0 0 C2 1 2 1 2 1 Z " fill="#FFFFFF" transform="translate(163,83)"/>
<path d="M0 0 C2 1 2 1 2 1 Z " fill="#FFFFFF" transform="translate(244,82)"/>
<path d="M0 0 C2 1 2 1 2 1 Z " fill="#FFFFFF" transform="translate(166,82)"/>
<path d="M0 0 C2 1 2 1 2 1 Z " fill="#FFFFFF" transform="translate(241,81)"/>
<path d="M0 0 C2 1 2 1 2 1 Z " fill="#FFFFFF" transform="translate(169,81)"/>
<path d="M0 0 C2 1 2 1 2 1 Z " fill="#FFFFFF" transform="translate(181,78)"/>
<path d="M0 0 C2 1 2 1 2 1 Z " fill="#FFFFFF" transform="translate(108,70)"/>
<path d="M0 0 C2 1 2 1 2 1 Z " fill="#FFFFFF" transform="translate(298,68)"/>
<path d="M0 0 C2 1 2 1 2 1 Z " fill="#FFFFFF" transform="translate(111,68)"/>
<path d="M0 0 C2 1 2 1 2 1 Z " fill="#FFFFFF" transform="translate(114,66)"/>
<path d="M0 0 C2 1 2 1 2 1 Z " fill="#FFFFFF" transform="translate(290,63)"/>
<path d="M0 0 C2 1 2 1 2 1 Z " fill="#FFFFFF" transform="translate(119,63)"/>
<path d="M0 0 C2 1 2 1 2 1 Z " fill="#FFFFFF" transform="translate(124,60)"/>
<path d="M0 0 C2 1 2 1 2 1 Z " fill="#FFFFFF" transform="translate(283,59)"/>
<path d="M0 0 C2 1 2 1 2 1 Z " fill="#FFFFFF" transform="translate(126,59)"/>
<path d="M0 0 C2 1 2 1 2 1 Z " fill="#FFFFFF" transform="translate(281,58)"/>
<path d="M0 0 C2 1 2 1 2 1 Z " fill="#BFBFBF" transform="translate(128,58)"/>
<path d="M0 0 C2 1 2 1 2 1 Z " fill="#FFFFFF" transform="translate(279,57)"/>
<path d="M0 0 C2 1 2 1 2 1 Z " fill="#FFFFFF" transform="translate(130,57)"/>
<path d="M0 0 C2 1 2 1 2 1 Z " fill="#FFFFFF" transform="translate(277,56)"/>
<path d="M0 0 C2 1 2 1 2 1 Z " fill="#BFBFBF" transform="translate(132,56)"/>
<path d="M0 0 C2 1 2 1 2 1 Z " fill="#FFFFFF" transform="translate(275,55)"/>
<path d="M0 0 C2 1 2 1 2 1 Z " fill="#FFFFFF" transform="translate(134,55)"/>
<path d="M0 0 C2 1 2 1 2 1 Z " fill="#FFFFFF" transform="translate(273,54)"/>
<path d="M0 0 C2 1 2 1 2 1 Z " fill="#FFFFFF" transform="translate(136,54)"/>
<path d="" fill="#000000" transform="translate(0,0)"/>
<path d="" fill="#FFFFFF" transform="translate(0,0)"/>
<path d="" fill="#FFFFFF" transform="translate(0,0)"/>
<path d="" fill="#FFFFFF" transform="translate(0,0)"/>
<path d="" fill="#FFFFFF" transform="translate(0,0)"/>
<path d="" fill="#FFFFFF" transform="translate(0,0)"/>
<path d="" fill="#FFFFFF" transform="translate(0,0)"/>
<path d="" fill="#FFFFFF" transform="translate(0,0)"/>
<path d="" fill="#808080" transform="translate(0,0)"/>
<path d="" fill="#808080" transform="translate(0,0)"/>
<path d="" fill="#FFFFFF" transform="translate(0,0)"/>
<path d="" fill="#FFFFFF" transform="translate(0,0)"/>
<path d="" fill="#FFFFFF" transform="translate(0,0)"/>
<path d="" fill="#FFFFFF" transform="translate(0,0)"/>
<path d="" fill="#FFFFFF" transform="translate(0,0)"/>
<path d="" fill="#FFFFFF" transform="translate(0,0)"/>
<path d="" fill="#FFFFFF" transform="translate(0,0)"/>
<path d="" fill="#FFFFFF" transform="translate(0,0)"/>
<path d="" fill="#FFFFFF" transform="translate(0,0)"/>
<path d="" fill="#FFFFFF" transform="translate(0,0)"/>
<path d="" fill="#FFFFFF" transform="translate(0,0)"/>
<path d="" fill="#AAAAAA" transform="translate(0,0)"/>
<path d="" fill="#AAAAAA" transform="translate(0,0)"/>
<path d="" fill="#AAAAAA" transform="translate(0,0)"/>
<path d="" fill="#AAAAAA" transform="translate(0,0)"/>
<path d="" fill="#AAAAAA" transform="translate(0,0)"/>
<path d="" fill="#FFAAAA" transform="translate(0,0)"/>
<path d="" fill="#FFFFFF" transform="translate(0,0)"/>
<path d="" fill="#FFFFFF" transform="translate(0,0)"/>
<path d="" fill="#000000" transform="translate(0,0)"/>
<path d="" fill="#000000" transform="translate(0,0)"/>
<path d="" fill="#000000" transform="translate(0,0)"/>
<path d="" fill="#000000" transform="translate(0,0)"/>
<path d="" fill="#000000" transform="translate(0,0)"/>
<path d="" fill="#FFFF00" transform="translate(0,0)"/>
<path d="" fill="#FFFFFF" transform="translate(0,0)"/>
<path d="" fill="#FFFFFF" transform="translate(0,0)"/>
<path d="" fill="#FFFFFF" transform="translate(0,0)"/>
<path d="" fill="#FFFFFF" transform="translate(0,0)"/>
<path d="" fill="#FFFFFF" transform="translate(0,0)"/>
<path d="" fill="#FFFFFF" transform="translate(0,0)"/>
<path d="" fill="#FFFFFF" transform="translate(0,0)"/>
<path d="" fill="#FFFFFF" transform="translate(0,0)"/>
<path d="" fill="#FFFFFF" transform="translate(0,0)"/>
<path d="" fill="#FFFFFF" transform="translate(0,0)"/>
<path d="" fill="#FFFFFF" transform="translate(0,0)"/>
<path d="" fill="#FFFFFF" transform="translate(0,0)"/>
<path d="" fill="#FFFFFF" transform="translate(0,0)"/>
<path d="" fill="#FFFFFF" transform="translate(0,0)"/>
<path d="" fill="#FFFFFF" transform="translate(0,0)"/>
<path d="" fill="#FFFFFF" transform="translate(0,0)"/>
<path d="" fill="#FFFFFF" transform="translate(0,0)"/>
<path d="" fill="#FFFFFF" transform="translate(0,0)"/>
<path d="" fill="#FFFFFF" transform="translate(0,0)"/>
<path d="" fill="#FFFFFF" transform="translate(0,0)"/>
<path d="" fill="#FFFFFF" transform="translate(0,0)"/>
<path d="" fill="#FFFFFF" transform="translate(0,0)"/>
<path d="" fill="#FFFFFF" transform="translate(0,0)"/>
<path d="" fill="#FFFFFF" transform="translate(0,0)"/>
<path d="" fill="#FFFFFF" transform="translate(0,0)"/>
<path d="" fill="#FFFFFF" transform="translate(0,0)"/>
<path d="" fill="#FFFFFF" transform="translate(0,0)"/>
<path d="" fill="#FFFFFF" transform="translate(0,0)"/>
<path d="" fill="#FFFFFF" transform="translate(0,0)"/>
<path d="" fill="#FFFFFF" transform="translate(0,0)"/>
<path d="" fill="#FFFFFF" transform="translate(0,0)"/>
<path d="" fill="#FFFFFF" transform="translate(0,0)"/>
<path d="" fill="#FFFFFF" transform="translate(0,0)"/>
<path d="" fill="#FFFFFF" transform="translate(0,0)"/>
<path d="" fill="#FFFFFF" transform="translate(0,0)"/>
<path d="" fill="#FFFFFF" transform="translate(0,0)"/>
<path d="" fill="#FFFFFF" transform="translate(0,0)"/>
<path d="" fill="#FFFFFF" transform="translate(0,0)"/>
<path d="" fill="#FFFFFF" transform="translate(0,0)"/>
<path d="" fill="#FFFFFF" transform="translate(0,0)"/>
<path d="" fill="#FFFFFF" transform="translate(0,0)"/>
<path d="" fill="#FFFFFF" transform="translate(0,0)"/>
<path d="" fill="#FFFFFF" transform="translate(0,0)"/>
<path d="" fill="#FFFFFF" transform="translate(0,0)"/>
<path d="" fill="#FFFFFF" transform="translate(0,0)"/>
<path d="" fill="#FFFFFF" transform="translate(0,0)"/>
<path d="" fill="#FFFFFF" transform="translate(0,0)"/>
<path d="" fill="#FFFFFF" transform="translate(0,0)"/>
<path d="" fill="#FFFFFF" transform="translate(0,0)"/>
<path d="" fill="#FFFFFF" transform="translate(0,0)"/>
<path d="" fill="#FFFFFF" transform="translate(0,0)"/>
<path d="" fill="#FFFFFF" transform="translate(0,0)"/>
<path d="" fill="#FFFFFF" transform="translate(0,0)"/>
<path d="" fill="#FFFFFF" transform="translate(0,0)"/>
<path d="" fill="#FFFFFF" transform="translate(0,0)"/>
<path d="" fill="#FFFFFF" transform="translate(0,0)"/>
<path d="" fill="#FFFFFF" transform="translate(0,0)"/>
<path d="" fill="#FFFFFF" transform="translate(0,0)"/>
<path d="" fill="#000000" transform="translate(0,0)"/>
<path d="" fill="#FFFFFF" transform="translate(0,0)"/>
<path d="" fill="#FFFFFF" transform="translate(0,0)"/>
<path d="" fill="#FFFFFF" transform="translate(0,0)"/>
<path d="" fill="#FFFFFF" transform="translate(0,0)"/>
<path d="" fill="#FFFFFF" transform="translate(0,0)"/>
<path d="" fill="#FFFFFF" transform="translate(0,0)"/>
<path d="" fill="#FFFFFF" transform="translate(0,0)"/>
<path d="" fill="#FFFFFF" transform="translate(0,0)"/>
<path d="" fill="#FFFFFF" transform="translate(0,0)"/>
<path d="" fill="#FFFFFF" transform="translate(0,0)"/>
<path d="" fill="#FFFFFF" transform="translate(0,0)"/>
<path d="" fill="#FFFFFF" transform="translate(0,0)"/>
<path d="" fill="#FFFFFF" transform="translate(0,0)"/>
<path d="" fill="#FFFFFF" transform="translate(0,0)"/>
<path d="" fill="#FFFFFF" transform="translate(0,0)"/>
<path d="" fill="#FFFFFF" transform="translate(0,0)"/>
<path d="" fill="#FFFFFF" transform="translate(0,0)"/>
<path d="" fill="#FFFFFF" transform="translate(0,0)"/>
<path d="" fill="#FFFFFF" transform="translate(0,0)"/>
<path d="" fill="#FFFFFF" transform="translate(0,0)"/>
<path d="" fill="#FFFFFF" transform="translate(0,0)"/>
<path d="" fill="#FFFFFF" transform="translate(0,0)"/>
<path d="" fill="#FFFFFF" transform="translate(0,0)"/>
<path d="" fill="#FFFFFF" transform="translate(0,0)"/>
<path d="" fill="#FFFFFF" transform="translate(0,0)"/>
<path d="" fill="#FFFFFF" transform="translate(0,0)"/>
<path d="" fill="#FFFFFF" transform="translate(0,0)"/>
<path d="" fill="#FFFFFF" transform="translate(0,0)"/>
<path d="" fill="#FFFFFF" transform="translate(0,0)"/>
<path d="" fill="#FFFFFF" transform="translate(0,0)"/>
<path d="" fill="#FFFFFF" transform="translate(0,0)"/>
<path d="" fill="#FFFFFF" transform="translate(0,0)"/>
<path d="" fill="#FFFFFF" transform="translate(0,0)"/>
<path d="" fill="#FFFFFF" transform="translate(0,0)"/>
<path d="" fill="#FFFFFF" transform="translate(0,0)"/>
<path d="" fill="#FFFFFF" transform="translate(0,0)"/>
<path d="" fill="#FF0000" transform="translate(0,0)"/>
<path d="" fill="#FFFFFF" transform="translate(0,0)"/>
<path d="" fill="#000000" transform="translate(0,0)"/>
<path d="" fill="#FFFFFF" transform="translate(0,0)"/>
<path d="" fill="#FFFFFF" transform="translate(0,0)"/>
<path d="" fill="#FFFFFF" transform="translate(0,0)"/>
<path d="" fill="#FFFFFF" transform="translate(0,0)"/>
<path d="" fill="#FFFFFF" transform="translate(0,0)"/>
<path d="" fill="#FFFFFF" transform="translate(0,0)"/>
<path d="" fill="#FFFFFF" transform="translate(0,0)"/>
<path d="" fill="#FFFFFF" transform="translate(0,0)"/>
<path d="" fill="#FFFFFF" transform="translate(0,0)"/>
<path d="" fill="#FFFFFF" transform="translate(0,0)"/>
<path d="" fill="#FFFFFF" transform="translate(0,0)"/>
<path d="" fill="#FFFFFF" transform="translate(0,0)"/>
<path d="" fill="#FFFFFF" transform="translate(0,0)"/>
<path d="" fill="#AAAAAA" transform="translate(0,0)"/>
<path d="" fill="#FFFFFF" transform="translate(0,0)"/>
<path d="" fill="#999999" transform="translate(0,0)"/>
<path d="" fill="#FFFFFF" transform="translate(0,0)"/>
<path d="" fill="#AAAAAA" transform="translate(0,0)"/>
<path d="" fill="#CCCCCC" transform="translate(0,0)"/>
<path d="" fill="#FFFFFF" transform="translate(0,0)"/>
<path d="" fill="#999999" transform="translate(0,0)"/>
<path d="" fill="#808080" transform="translate(0,0)"/>
<path d="" fill="#808080" transform="translate(0,0)"/>
<path d="" fill="#BFBFBF" transform="translate(0,0)"/>
<path d="" fill="#BFBFBF" transform="translate(0,0)"/>
<path d="" fill="#999999" transform="translate(0,0)"/>
<path d="" fill="#CCCCCC" transform="translate(0,0)"/>
<path d="" fill="#808080" transform="translate(0,0)"/>
<path d="" fill="#BFBFBF" transform="translate(0,0)"/>
<path d="" fill="#808080" transform="translate(0,0)"/>
<path d="" fill="#808080" transform="translate(0,0)"/>
<path d="" fill="#FFFFFF" transform="translate(0,0)"/>
<path d="" fill="#FFFFFF" transform="translate(0,0)"/>
<path d="" fill="#808080" transform="translate(0,0)"/>
<path d="" fill="#FFFFFF" transform="translate(0,0)"/>
<path d="" fill="#FFFFFF" transform="translate(0,0)"/>
<path d="" fill="#FFFFFF" transform="translate(0,0)"/>
<path d="" fill="#FFFFFF" transform="translate(0,0)"/>
<path d="" fill="#FFFFFF" transform="translate(0,0)"/>
<path d="" fill="#AAAAAA" transform="translate(0,0)"/>
<path d="" fill="#FFFFFF" transform="translate(0,0)"/>
<path d="" fill="#FFFFFF" transform="translate(0,0)"/>
<path d="" fill="#FFFFFF" transform="translate(0,0)"/>
<path d="" fill="#FFFFFF" transform="translate(0,0)"/>
<path d="" fill="#000000" transform="translate(0,0)"/>
<path d="" fill="#FFFFFF" transform="translate(0,0)"/>
<path d="" fill="#FFFFFF" transform="translate(0,0)"/>
<path d="" fill="#FFFFFF" transform="translate(0,0)"/>
<path d="" fill="#FFFFFF" transform="translate(0,0)"/>
<path d="" fill="#FFFFFF" transform="translate(0,0)"/>
<path d="" fill="#FFFFFF" transform="translate(0,0)"/>
<path d="" fill="#FFFFFF" transform="translate(0,0)"/>
<path d="" fill="#FFFFFF" transform="translate(0,0)"/>
<path d="" fill="#FFFFFF" transform="translate(0,0)"/>
<path d="" fill="#FFFFFF" transform="translate(0,0)"/>
<path d="" fill="#FFFFFF" transform="translate(0,0)"/>
<path d="" fill="#FFFFFF" transform="translate(0,0)"/>
<path d="" fill="#FFFFFF" transform="translate(0,0)"/>
<path d="" fill="#FFFFFF" transform="translate(0,0)"/>
<path d="" fill="#FFFFFF" transform="translate(0,0)"/>
<path d="" fill="#FFFFFF" transform="translate(0,0)"/>
<path d="" fill="#FFFFFF" transform="translate(0,0)"/>
<path d="" fill="#FFFFFF" transform="translate(0,0)"/>
<path d="" fill="#FFFFFF" transform="translate(0,0)"/>
<path d="" fill="#FFFFFF" transform="translate(0,0)"/>
<path d="" fill="#FFFFFF" transform="translate(0,0)"/>
<path d="" fill="#FFFFFF" transform="translate(0,0)"/>
<path d="" fill="#FFFFFF" transform="translate(0,0)"/>
<path d="" fill="#FFFFFF" transform="translate(0,0)"/>
<path d="" fill="#FFFFFF" transform="translate(0,0)"/>
<path d="" fill="#AAAAAA" transform="translate(0,0)"/>
<path d="" fill="#FFFFFF" transform="translate(0,0)"/>
<path d="" fill="#808080" transform="translate(0,0)"/>
<path d="" fill="#808080" transform="translate(0,0)"/>
<path d="" fill="#AAAAAA" transform="translate(0,0)"/>
<path d="" fill="#AAAAAA" transform="translate(0,0)"/>
<path d="" fill="#CCCCCC" transform="translate(0,0)"/>
<path d="" fill="#FFFFFF" transform="translate(0,0)"/>
<path d="" fill="#BFBFBF" transform="translate(0,0)"/>
<path d="" fill="#AAAAAA" transform="translate(0,0)"/>
<path d="" fill="#808080" transform="translate(0,0)"/>
<path d="" fill="#808080" transform="translate(0,0)"/>
<path d="" fill="#FFFFFF" transform="translate(0,0)"/>
<path d="" fill="#FFFFFF" transform="translate(0,0)"/>
<path d="" fill="#D5D5D5" transform="translate(0,0)"/>
<path d="" fill="#D5D5D5" transform="translate(0,0)"/>
<path d="" fill="#D5D5D5" transform="translate(0,0)"/>
<path d="" fill="#FFFFFF" transform="translate(0,0)"/>
<path d="" fill="#FFFFFF" transform="translate(0,0)"/>
<path d="" fill="#D5D5D5" transform="translate(0,0)"/>
<path d="" fill="#D5D5D5" transform="translate(0,0)"/>
<path d="" fill="#FFFFFF" transform="translate(0,0)"/>
<path d="" fill="#FFFFFF" transform="translate(0,0)"/>
<path d="" fill="#FFFFFF" transform="translate(0,0)"/>
<path d="" fill="#FFFFFF" transform="translate(0,0)"/>
<path d="" fill="#BFBFBF" transform="translate(0,0)"/>
<path d="" fill="#BFBFBF" transform="translate(0,0)"/>
<path d="" fill="#D5D5D5" transform="translate(0,0)"/>
<path d="" fill="#FFCCCC" transform="translate(0,0)"/>
<path d="" fill="#FFFFFF" transform="translate(0,0)"/>
<path d="" fill="#FFFFFF" transform="translate(0,0)"/>
<path d="" fill="#D5D5D5" transform="translate(0,0)"/>
<path d="" fill="#FFFFFF" transform="translate(0,0)"/>
<path d="" fill="#FFFFFF" transform="translate(0,0)"/>
<path d="" fill="#FFFFFF" transform="translate(0,0)"/>
<path d="" fill="#FFFFFF" transform="translate(0,0)"/>
<path d="" fill="#FFFFFF" transform="translate(0,0)"/>
<path d="" fill="#FFFFFF" transform="translate(0,0)"/>
<path d="" fill="#FFFFFF" transform="translate(0,0)"/>
<path d="" fill="#FFFFFF" transform="translate(0,0)"/>
<path d="" fill="#FFFFFF" transform="translate(0,0)"/>
<path d="" fill="#FFFFFF" transform="translate(0,0)"/>
<path d="" fill="#FFFFFF" transform="translate(0,0)"/>
<path d="" fill="#FFFFFF" transform="translate(0,0)"/>
<path d="" fill="#FFFFFF" transform="translate(0,0)"/>
<path d="" fill="#FFFFFF" transform="translate(0,0)"/>
<path d="" fill="#FFFFFF" transform="translate(0,0)"/>
<path d="" fill="#FFFFFF" transform="translate(0,0)"/>
<path d="" fill="#FFFFFF" transform="translate(0,0)"/>
<path d="" fill="#FFFFFF" transform="translate(0,0)"/>
<path d="" fill="#FFFFFF" transform="translate(0,0)"/>
<path d="" fill="#FFFFFF" transform="translate(0,0)"/>
<path d="" fill="#FFFFFF" transform="translate(0,0)"/>
<path d="" fill="#FFFFFF" transform="translate(0,0)"/>
<path d="" fill="#FFFFFF" transform="translate(0,0)"/>
<path d="" fill="#FFFFFF" transform="translate(0,0)"/>
<path d="" fill="#FFFFFF" transform="translate(0,0)"/>
<path d="" fill="#FFFFFF" transform="translate(0,0)"/>
<path d="" fill="#FFFFFF" transform="translate(0,0)"/>
<path d="" fill="#808080" transform="translate(0,0)"/>
<path d="" fill="#FFFFFF" transform="translate(0,0)"/>
<path d="" fill="#FFFFFF" transform="translate(0,0)"/>
<path d="" fill="#FFFFFF" transform="translate(0,0)"/>
<path d="" fill="#FFFFFF" transform="translate(0,0)"/>
<path d="" fill="#FFFFFF" transform="translate(0,0)"/>
<path d="" fill="#FFFFFF" transform="translate(0,0)"/>
<path d="" fill="#FFFFFF" transform="translate(0,0)"/>
<path d="" fill="#FFFFFF" transform="translate(0,0)"/>
<path d="" fill="#FFFFFF" transform="translate(0,0)"/>
<path d="" fill="#FFFFFF" transform="translate(0,0)"/>
<path d="" fill="#FFFFFF" transform="translate(0,0)"/>
<path d="" fill="#FFFFFF" transform="translate(0,0)"/>
<path d="" fill="#FFFFFF" transform="translate(0,0)"/>
<path d="" fill="#FFFFFF" transform="translate(0,0)"/>
<path d="" fill="#FFFFFF" transform="translate(0,0)"/>
<path d="" fill="#FFFFFF" transform="translate(0,0)"/>
<path d="" fill="#FFFFFF" transform="translate(0,0)"/>
<path d="" fill="#FFFFFF" transform="translate(0,0)"/>
<path d="" fill="#FFFFFF" transform="translate(0,0)"/>
<path d="" fill="#FFFFFF" transform="translate(0,0)"/>
<path d="" fill="#FFFFFF" transform="translate(0,0)"/>
<path d="" fill="#FFFFFF" transform="translate(0,0)"/>
<path d="" fill="#FFFFFF" transform="translate(0,0)"/>
<path d="" fill="#FFFFFF" transform="translate(0,0)"/>
<path d="" fill="#FFFFFF" transform="translate(0,0)"/>
<path d="" fill="#FFFFFF" transform="translate(0,0)"/>
<path d="" fill="#FFFFFF" transform="translate(0,0)"/>
<path d="" fill="#FFFFFF" transform="translate(0,0)"/>
<path d="" fill="#FFFFFF" transform="translate(0,0)"/>
<path d="" fill="#FFFFFF" transform="translate(0,0)"/>
<path d="" fill="#FFFFFF" transform="translate(0,0)"/>
<path d="" fill="#FFFFFF" transform="translate(0,0)"/>
<path d="" fill="#FFFFFF" transform="translate(0,0)"/>
<path d="" fill="#FFFFFF" transform="translate(0,0)"/>
<path d="" fill="#FFFFFF" transform="translate(0,0)"/>
<path d="" fill="#FFFFFF" transform="translate(0,0)"/>
<path d="" fill="#FFFFFF" transform="translate(0,0)"/>
<path d="" fill="#FFFFFF" transform="translate(0,0)"/>
<path d="" fill="#FFFFFF" transform="translate(0,0)"/>
<path d="" fill="#FFFFFF" transform="translate(0,0)"/>
<path d="" fill="#FFFFFF" transform="translate(0,0)"/>
<path d="" fill="#FFFFFF" transform="translate(0,0)"/>
<path d="" fill="#FFFFFF" transform="translate(0,0)"/>
<path d="" fill="#FFFFFF" transform="translate(0,0)"/>
<path d="" fill="#FFFFFF" transform="translate(0,0)"/>
<path d="" fill="#FFFFFF" transform="translate(0,0)"/>
<path d="" fill="#FFFFFF" transform="translate(0,0)"/>
<path d="" fill="#FFFFFF" transform="translate(0,0)"/>
<path d="" fill="#FFFFFF" transform="translate(0,0)"/>
<path d="" fill="#FFFFFF" transform="translate(0,0)"/>
<path d="" fill="#FFFFFF" transform="translate(0,0)"/>
<path d="" fill="#FFFFFF" transform="translate(0,0)"/>
<path d="" fill="#FFFFFF" transform="translate(0,0)"/>
<path d="" fill="#FFFFFF" transform="translate(0,0)"/>
<path d="" fill="#FFFFFF" transform="translate(0,0)"/>
<path d="" fill="#FFFFFF" transform="translate(0,0)"/>
<path d="" fill="#FFFFFF" transform="translate(0,0)"/>
<path d="" fill="#FFFFFF" transform="translate(0,0)"/>
<path d="" fill="#FFFFFF" transform="translate(0,0)"/>
<path d="" fill="#FFFFFF" transform="translate(0,0)"/>
<path d="" fill="#FFFFFF" transform="translate(0,0)"/>
<path d="" fill="#FFFFFF" transform="translate(0,0)"/>
<path d="" fill="#FFFFFF" transform="translate(0,0)"/>
<path d="" fill="#FFFFFF" transform="translate(0,0)"/>
<path d="" fill="#FFFFFF" transform="translate(0,0)"/>
<path d="" fill="#FFFFFF" transform="translate(0,0)"/>
<path d="" fill="#FFFFFF" transform="translate(0,0)"/>
<path d="" fill="#FFFFFF" transform="translate(0,0)"/>
<path d="" fill="#FFFFFF" transform="translate(0,0)"/>
<path d="" fill="#FFFFFF" transform="translate(0,0)"/>
<path d="" fill="#FFFFFF" transform="translate(0,0)"/>
<path d="" fill="#FFFFFF" transform="translate(0,0)"/>
<path d="" fill="#FFFFFF" transform="translate(0,0)"/>
<path d="" fill="#FFFFFF" transform="translate(0,0)"/>
<path d="" fill="#FFFFFF" transform="translate(0,0)"/>
<path d="" fill="#FFFFFF" transform="translate(0,0)"/>
<path d="" fill="#FFFFFF" transform="translate(0,0)"/>
<path d="" fill="#FFFFFF" transform="translate(0,0)"/>
<path d="" fill="#FFFFFF" transform="translate(0,0)"/>
<path d="" fill="#FFFFFF" transform="translate(0,0)"/>
<path d="" fill="#FFFFFF" transform="translate(0,0)"/>
<path d="" fill="#FFFFFF" transform="translate(0,0)"/>
<path d="" fill="#FFFFFF" transform="translate(0,0)"/>
<path d="" fill="#FFFFFF" transform="translate(0,0)"/>
<path d="" fill="#FFFFFF" transform="translate(0,0)"/>
<path d="" fill="#FFFFFF" transform="translate(0,0)"/>
<path d="" fill="#FFFFFF" transform="translate(0,0)"/>
<path d="" fill="#FFFFFF" transform="translate(0,0)"/>
<path d="" fill="#FFFFFF" transform="translate(0,0)"/>
<path d="" fill="#FFFFFF" transform="translate(0,0)"/>
<path d="" fill="#FFFFFF" transform="translate(0,0)"/>
<path d="" fill="#FFFFFF" transform="translate(0,0)"/>
<path d="" fill="#FFFFFF" transform="translate(0,0)"/>
<path d="" fill="#FFFFFF" transform="translate(0,0)"/>
<path d="" fill="#FFFFFF" transform="translate(0,0)"/>
<path d="" fill="#FFFFFF" transform="translate(0,0)"/>
<path d="" fill="#FFFFFF" transform="translate(0,0)"/>
<path d="" fill="#FFFFFF" transform="translate(0,0)"/>
<path d="" fill="#FFFFFF" transform="translate(0,0)"/>
</svg>
