<?xml version="1.0" encoding="UTF-8"?>
<svg version="1.1" xmlns="http://www.w3.org/2000/svg" width="90" height="91">
<path d="M0 0 C1.13500443 -0.0127597 2.27000885 -0.02551941 3.43940735 -0.03866577 C5.26607185 -0.04200424 5.26607185 -0.04200424 7.12963867 -0.04541016 C9.02162239 -0.05539536 9.02162239 -0.05539536 10.951828 -0.06558228 C13.61907069 -0.07570214 16.28590568 -0.08126554 18.953125 -0.08007812 C22.35254064 -0.07987527 25.75111716 -0.10715145 29.15033436 -0.14162254 C32.4142367 -0.16935881 35.67813458 -0.168044 38.94213867 -0.17041016 C40.75969414 -0.19196671 40.75969414 -0.19196671 42.6139679 -0.21395874 C50.53858479 -0.17135159 56.0847059 0.70900325 62.25854492 6.03662109 C62.92756836 6.87386719 62.92756836 6.87386719 63.61010742 7.72802734 C64.30233398 8.56140625 64.30233398 8.56140625 65.00854492 9.41162109 C67.69797079 13.5314104 68.48823881 17.1740126 68.52563477 22.05541992 C68.53839447 23.19042435 68.55115417 24.32542877 68.56430054 25.49482727 C68.56652618 26.71260361 68.56875183 27.93037994 68.57104492 29.18505859 C68.58103012 31.07704231 68.58103012 31.07704231 68.59121704 33.00724792 C68.6013369 35.67449061 68.6069003 38.3413256 68.60571289 41.00854492 C68.60551003 44.40796056 68.63278622 47.80653709 68.66725731 51.20575428 C68.69499358 54.46965663 68.69367877 57.7335545 68.69604492 60.99755859 C68.71041595 62.20926224 68.72478699 63.42096588 68.73959351 64.66938782 C68.69698635 72.59400471 67.81663152 78.14012582 62.48901367 84.31396484 C61.93084961 84.75998047 61.37268555 85.20599609 60.79760742 85.66552734 C59.96422852 86.35775391 59.96422852 86.35775391 59.11401367 87.06396484 C54.99422437 89.75339071 51.35162217 90.54365873 46.47021484 90.58105469 C45.33521042 90.59381439 44.20020599 90.6065741 43.0308075 90.61972046 C41.20414299 90.62305893 41.20414299 90.62305893 39.34057617 90.62646484 C37.44859245 90.63645004 37.44859245 90.63645004 35.51838684 90.64663696 C32.85114416 90.65675682 30.18430917 90.66232023 27.51708984 90.66113281 C24.1176742 90.66092995 20.71909768 90.68820614 17.31988049 90.72267723 C14.05597814 90.7504135 10.79208026 90.74909869 7.52807617 90.75146484 C5.71052071 90.77302139 5.71052071 90.77302139 3.85624695 90.79501343 C-4.06836995 90.75240627 -9.61449105 89.87205144 -15.78833008 84.54443359 C-16.2343457 83.98626953 -16.68036133 83.42810547 -17.13989258 82.85302734 C-17.60137695 82.29744141 -18.06286133 81.74185547 -18.53833008 81.16943359 C-21.22775594 77.04964429 -22.01802397 73.40704209 -22.05541992 68.52563477 C-22.06817963 67.39063034 -22.08093933 66.25562592 -22.09408569 65.08622742 C-22.09631134 63.86845108 -22.09853699 62.65067474 -22.10083008 61.39599609 C-22.10748688 60.13467361 -22.11414368 58.87335114 -22.1210022 57.57380676 C-22.13112206 54.90656408 -22.13668546 52.23972909 -22.13549805 49.57250977 C-22.13529519 46.17309413 -22.16257137 42.7745176 -22.19704247 39.37530041 C-22.22477873 36.11139806 -22.22346393 32.84750018 -22.22583008 29.58349609 C-22.24020111 28.37179245 -22.25457214 27.16008881 -22.26937866 25.91166687 C-22.22677151 17.98704997 -21.34641668 12.44092887 -16.01879883 6.26708984 C-15.46063477 5.82107422 -14.9024707 5.37505859 -14.32739258 4.91552734 C-13.77180664 4.45404297 -13.2162207 3.99255859 -12.64379883 3.51708984 C-8.52400952 0.82766398 -4.88140733 0.03739596 0 0 Z " fill="#4A45CF" transform="translate(21.764892578125,0.70947265625)"/>
<path d="M0 0 C8.21313124 4.86973268 13.32458414 11.10773904 16.20703125 20.30859375 C17.73816427 30.66443263 16.50791942 39.6218044 10.20703125 48.30859375 C7.71818701 50.92678652 5.13594329 53.19739827 2.20703125 55.30859375 C-1.64889949 53.72297737 -4.12513166 51.24349421 -7.04296875 48.30859375 C-8.38101563 46.97828125 -8.38101563 46.97828125 -9.74609375 45.62109375 C-11.79296875 43.30859375 -11.79296875 43.30859375 -11.79296875 41.30859375 C-10.69984375 40.79296875 -9.60671875 40.27734375 -8.48046875 39.74609375 C-5.48659162 38.01535342 -4.70235714 37.16134989 -2.79296875 34.05859375 C-1.64428887 29.75104421 -1.3329853 26.54610668 -2.79296875 22.30859375 C-5.62313678 18.69226793 -8.28885423 16.35606224 -12.79296875 15.30859375 C-17.03159867 15.23953257 -20.02448114 15.84081868 -23.66796875 18.05859375 C-27.41837566 22.02961283 -28.04265044 25.92324877 -28.20703125 31.265625 C-28.24570312 32.37744141 -28.284375 33.48925781 -28.32421875 34.63476562 C-28.370625 36.36049805 -28.370625 36.36049805 -28.41796875 38.12109375 C-28.45664062 39.29091797 -28.4953125 40.46074219 -28.53515625 41.66601562 C-28.62922005 44.54671939 -28.71486752 47.42742029 -28.79296875 50.30859375 C-26.81296875 50.96859375 -24.83296875 51.62859375 -22.79296875 52.30859375 C-22.8401001 51.12100464 -22.8401001 51.12100464 -22.88818359 49.90942383 C-23.01309512 46.3136058 -23.09100476 42.7182441 -23.16796875 39.12109375 C-23.21824219 37.87521484 -23.26851562 36.62933594 -23.3203125 35.34570312 C-23.46466456 26.37181699 -23.46466456 26.37181699 -21.54272461 23.32958984 C-18.89465514 21.00066881 -17.12691636 20.30859375 -13.60546875 20.30859375 C-9.2076029 21.87227939 -9.2076029 21.87227939 -7.79296875 24.30859375 C-7.2522378 27.90595658 -7.10805802 31.09097467 -8.91796875 34.30859375 C-10.79296875 35.30859375 -10.79296875 35.30859375 -16.79296875 35.30859375 C-16.79296875 41.57859375 -16.79296875 47.84859375 -16.79296875 54.30859375 C-13.32796875 53.81359375 -13.32796875 53.81359375 -9.79296875 53.30859375 C-7.35546875 55.74609375 -7.35546875 55.74609375 -5.79296875 58.30859375 C-8.02388857 60.53951357 -13.2192256 59.73975708 -16.29077148 59.76171875 C-25.2982529 59.55430636 -32.53771737 56.06511316 -38.79296875 49.55859375 C-45.47603373 40.8983873 -46.99698943 32.10754208 -45.79296875 21.30859375 C-43.82477541 12.85351468 -39.25658807 6.4546387 -32.19921875 1.48046875 C-22.22206314 -4.25907776 -10.49901976 -5.03186851 0 0 Z " fill="#F8F8FD" transform="translate(59.79296875,17.69140625)"/>
<path d="M0 0 C6.75288564 3.72890054 11.09157705 8.94049273 14.33203125 15.86328125 C16.00437117 24.05774687 14.88311577 30.51263124 10.95703125 37.92578125 C9.41178306 40.12765049 7.81390316 41.96574979 5.95703125 43.92578125 C4.30703125 42.27578125 2.65703125 40.62578125 0.95703125 38.92578125 C1.57578125 38.20390625 2.19453125 37.48203125 2.83203125 36.73828125 C7.1473794 31.02679105 7.6582129 25.93759774 6.95703125 18.92578125 C5.36337823 12.35196255 1.35403268 9.5237822 -4.04296875 5.92578125 C-10.84634218 5.15990442 -17.20728706 5.19094497 -23.04296875 8.92578125 C-28.33568828 14.006792 -29.74149417 18.57141942 -29.92578125 25.8046875 C-29.92320313 26.83464844 -29.920625 27.86460938 -29.91796875 28.92578125 C-29.93859375 29.98667969 -29.95921875 31.04757813 -29.98046875 32.140625 C-30.02724075 34.7364709 -30.04744051 37.32960335 -30.04296875 39.92578125 C-30.70296875 39.92578125 -31.36296875 39.92578125 -32.04296875 39.92578125 C-36.2280619 32.06378482 -38.99266758 25.33489761 -36.30859375 16.51171875 C-33.33961042 9.235276 -28.96758185 3.48271055 -21.89453125 -0.1484375 C-14.92367722 -2.41157778 -6.9161188 -2.44150535 0 0 Z " fill="#544FD5" transform="translate(56.04296875,22.07421875)"/>
</svg>
