<?xml version="1.0" encoding="UTF-8"?>
<svg version="1.1" xmlns="http://www.w3.org/2000/svg" width="81" height="69">
<path d="M0 0 C18.81 0 37.62 0 57 0 C57 0.33 57 0.66 57 1 C52.05 1.33 47.1 1.66 42 2 C43.381875 2.886875 44.76375 3.77375 46.1875 4.6875 C52.88288117 9.18252116 56.9757723 14.0988776 61 21 C61.66 19.68 62.32 18.36 63 17 C63 28.88 63 40.76 63 53 C62.67 53 62.34 53 62 53 C61.505 50.03 61.505 50.03 61 47 C60.58041016 47.85271484 60.58041016 47.85271484 60.15234375 48.72265625 C56.89785002 54.99095768 53.25313475 60.90648808 46.73828125 64.11328125 C42.09131386 63.92103866 39.7392061 60.44034842 36.6875 57.1875 C36.04232422 56.53201172 35.39714844 55.87652344 34.73242188 55.20117188 C30 50.30849868 30 50.30849868 30 48 C31.0725 47.608125 32.145 47.21625 33.25 46.8125 C36.94831514 45.19542293 38.93659451 43.57127873 41 40 C42.24640056 35.8396009 42.30247998 32.87383106 40.875 28.75 C37.79717679 24.23585929 35.49080762 22.36067926 30.125 21.0625 C25.72882824 20.74730278 22.76917701 21.60802229 19 24 C14.44418258 30.90694462 14.50851142 36.89155663 14.75 45 C14.77707031 46.73443359 14.77707031 46.73443359 14.8046875 48.50390625 C14.8515124 51.33681275 14.91707988 54.16795884 15 57 C16.32 57.66 17.64 58.32 19 59 C19.0093457 58.17798096 19.01869141 57.35596191 19.02832031 56.5090332 C19.08207871 52.77625038 19.16571831 49.04471319 19.25 45.3125 C19.26417969 44.01892578 19.27835938 42.72535156 19.29296875 41.39257812 C19.32519531 40.14541016 19.35742188 38.89824219 19.390625 37.61328125 C19.41157227 36.46641846 19.43251953 35.31955566 19.45410156 34.13793945 C20.1135751 30.34714635 21.24334578 28.65393502 24 26 C28.98902441 25.20809136 30.83082591 25.19619281 35 28.0625 C37.52975133 31.77807226 37.7878128 33.5882483 37 38 C34.8125 40.9375 34.8125 40.9375 32 43 C30.35 43 28.7 43 27 43 C27 48.94 27 54.88 27 61 C29.64 61 32.28 61 35 61 C37.5 63 37.5 63 39 65 C38.505 66.485 38.505 66.485 38 68 C25.10320118 68.72848027 15.46746711 68.62872882 4.859375 60.32421875 C0.62015684 56.45014333 -1.70730102 52.22735368 -4 47 C-4.33 49.31 -4.66 51.62 -5 54 C-5.33 54 -5.66 54 -6 54 C-6 41.46 -6 28.92 -6 16 C-5.67 16 -5.34 16 -5 16 C-4.67 17.98 -4.34 19.96 -4 22 C-3.505 20.845 -3.01 19.69 -2.5 18.5 C1.32581402 10.87540952 7.47268469 5.76365765 15 2 C10.05 1.67 5.1 1.34 0 1 C0 0.67 0 0.34 0 0 Z M10 14 C4.57146704 19.40581943 1.17057697 26.02483847 0.90625 33.734375 C1.25485196 40.04407055 2.82187936 44.5664389 6 50 C6.33 50 6.66 50 7 50 C7.0093457 49.40574219 7.01869141 48.81148437 7.02832031 48.19921875 C7.08252993 45.46535355 7.16607278 42.73310801 7.25 40 C7.27126953 38.59814453 7.27126953 38.59814453 7.29296875 37.16796875 C7.53076443 30.36701232 8.66114784 24.60404218 13.41088867 19.47705078 C18.93382243 14.58563751 24.05036602 13.53321784 31.21484375 13.6875 C36.89511537 14.32483763 41.09632782 16.6864938 44.875 20.9375 C48.98294661 26.857776 49.88992727 31.85939307 49 39 C47.95254551 42.17200842 46.56891708 45.05684897 45 48 C44.3314898 49.33240997 43.66427182 50.66547193 43 52 C44.65 52.66 46.3 53.32 48 54 C53.90451862 45.97876716 56.94556796 39.65654224 55.59765625 29.5859375 C53.37940049 19.98799428 48.2286081 14.36954744 40.1875 9.1875 C29.18830874 5.08976208 19.23586399 6.98927816 10 14 Z " fill="#F2F2F2" transform="translate(13,1)"/>
</svg>
